<svg width="68" height="68" viewBox="0 0 68 68" fill="none" xmlns="http://www.w3.org/2000/svg">
<path opacity="0.5" d="M58.9322 39.4837C60.0082 39.7334 61.0904 39.0642 61.2627 37.9731C61.8931 33.9813 61.6531 29.8919 60.5493 25.9879C59.2638 21.441 56.8486 17.2933 53.5285 13.9312C50.2083 10.5691 46.0914 8.10193 41.561 6.7594C37.6711 5.60668 33.5851 5.31528 29.5857 5.89547C28.4926 6.05405 27.8097 7.12775 28.0459 8.20678L33.3352 32.3706C33.5003 33.1248 34.0847 33.7167 34.8367 33.8912L58.9322 39.4837Z" fill="#87C5FF"/>
<g filter="url(#filter0_d)">
<path d="M24.7217 43.1028C29.5479 47.3963 36.8793 47.003 41.1322 42.2224C42.615 40.5556 43.4934 38.4858 43.9091 36.5125L46.8945 21.7087C47.1044 20.755 46.6689 19.7974 45.9911 19.1944C45.3133 18.5914 44.3466 18.3016 43.3888 18.59L29.0384 23.2729C27.121 23.9104 25.1991 25.0001 23.6905 26.6958C19.4378 31.4762 19.8956 38.8094 24.7217 43.1028Z" fill="white"/>
</g>
<circle cx="32.2754" cy="35.0991" r="5" transform="rotate(41.657 32.2754 35.0991)" fill="#87C5FF"/>
<defs>
<filter id="filter0_d" x="18.7787" y="17.4775" width="30.1689" height="31.6045" filterUnits="userSpaceOnUse" color-interpolation-filters="sRGB">
<feFlood flood-opacity="0" result="BackgroundImageFix"/>
<feColorMatrix in="SourceAlpha" type="matrix" values="0 0 0 0 0 0 0 0 0 0 0 0 0 0 0 0 0 0 127 0"/>
<feOffset dy="1"/>
<feGaussianBlur stdDeviation="1"/>
<feColorMatrix type="matrix" values="0 0 0 0 0 0 0 0 0 0 0 0 0 0 0 0 0 0 0.16 0"/>
<feBlend mode="normal" in2="BackgroundImageFix" result="effect1_dropShadow"/>
<feBlend mode="normal" in="SourceGraphic" in2="effect1_dropShadow" result="shape"/>
</filter>
</defs>
</svg>
