<svg width="28" height="36" viewBox="0 0 28 36" fill="none" xmlns="http://www.w3.org/2000/svg">
<g filter="url(#filter0_d)">
<path d="M13.6757 1C7.21613 1 2 6.16681 2 12.5653C2 14.7962 2.71947 16.9265 3.72046 18.6771L11.3296 31.7219C11.8066 32.574 12.7685 33 13.6757 33C14.5829 33 15.4978 32.574 16.0218 31.7219L23.6309 18.6848C24.6397 16.9341 25.3514 14.8426 25.3514 12.5729C25.3514 6.17456 20.1352 1 13.6757 1Z" fill="#108CFF"/>
</g>
<path d="M13.4669 7.91895C11.2771 7.91895 9.49561 9.70047 9.49561 11.8903V11.9397C9.49561 12.6341 10.0605 13.1989 10.7548 13.1989C10.9482 13.1989 11.134 13.156 11.3072 13.0714C11.7432 12.8584 12.014 12.4247 12.014 11.9397V11.8903C12.014 11.0892 12.6658 10.4374 13.4669 10.4374C14.2681 10.4374 14.9199 11.0892 14.9199 11.8903C14.9199 12.6915 14.2681 13.3432 13.4669 13.3432H13.2755C12.5811 13.3432 12.0163 13.9081 12.0163 14.6024V16.683C12.0163 17.3773 12.5811 17.9422 13.2755 17.9422C13.9698 17.9422 14.5346 17.3773 14.5346 16.683V15.716C16.2356 15.2423 17.4382 13.6832 17.4382 11.8903C17.4383 9.70047 15.6568 7.91895 13.4669 7.91895Z" fill="#F6F8FC"/>
<path d="M13.2548 18.4204C12.4084 18.4204 11.7198 19.1091 11.7198 19.9555C11.7198 20.8018 12.4085 21.4905 13.2548 21.4905C14.1013 21.4905 14.7898 20.8018 14.7898 19.9555C14.7898 19.1091 14.1013 18.4204 13.2548 18.4204Z" fill="#F6F8FC"/>
<defs>
<filter id="filter0_d" x="0" y="0" width="27.3514" height="36" filterUnits="userSpaceOnUse" color-interpolation-filters="sRGB">
<feFlood flood-opacity="0" result="BackgroundImageFix"/>
<feColorMatrix in="SourceAlpha" type="matrix" values="0 0 0 0 0 0 0 0 0 0 0 0 0 0 0 0 0 0 127 0"/>
<feOffset dy="1"/>
<feGaussianBlur stdDeviation="1"/>
<feColorMatrix type="matrix" values="0 0 0 0 0 0 0 0 0 0 0 0 0 0 0 0 0 0 0.16 0"/>
<feBlend mode="normal" in2="BackgroundImageFix" result="effect1_dropShadow"/>
<feBlend mode="normal" in="SourceGraphic" in2="effect1_dropShadow" result="shape"/>
</filter>
</defs>
</svg>
